<svg width="23" height="23" viewBox="0 0 23 23" fill="none" xmlns="http://www.w3.org/2000/svg">
<path d="M21.0967 8.41927C21.039 8.24946 20.9329 8.10025 20.7914 7.99006C20.6499 7.87987 20.4793 7.81353 20.3005 7.79922L15.0714 7.38371L12.8086 2.3747C12.7365 2.21337 12.6193 2.07634 12.4711 1.98016C12.3228 1.88397 12.15 1.83274 11.9733 1.83264C11.7966 1.83254 11.6236 1.88359 11.4753 1.97961C11.327 2.07563 11.2096 2.21253 11.1374 2.37378L8.87455 7.38371L3.64539 7.79922C3.4697 7.81314 3.30174 7.87738 3.1616 7.98425C3.02147 8.09113 2.91509 8.23612 2.85519 8.40187C2.7953 8.56762 2.78442 8.74712 2.82387 8.91889C2.86332 9.09066 2.95142 9.24743 3.07763 9.37044L6.94193 13.1375L5.57526 19.0555C5.53376 19.2347 5.54706 19.4221 5.61343 19.5936C5.6798 19.7651 5.79618 19.9127 5.94747 20.0172C6.09876 20.1217 6.27797 20.1783 6.46184 20.1797C6.64571 20.1811 6.82576 20.1272 6.97862 20.025L11.973 16.6955L16.9673 20.025C17.1235 20.1288 17.3078 20.1822 17.4953 20.1781C17.6828 20.1739 17.8645 20.1125 18.0161 20.002C18.1676 19.8916 18.2817 19.7373 18.3429 19.5601C18.4042 19.3828 18.4097 19.1911 18.3587 19.0106L16.6811 13.1403L20.8417 9.39612C21.1141 9.15031 21.2141 8.7669 21.0967 8.41927Z" fill="#F3CD03"/>
</svg>
